<svg viewBox="0 0 1 1"><path d="M.25.063a.02.02 0 1 0 .042 0 .02.02 0 1 0-.042 0m.042 0a.02.02 0 1 0 .041 0 .02.02 0 1 0-.041 0m.375 0a.02.02 0 1 0 .041 0 .02.02 0 1 0-.041 0m.042 0a.02.02 0 1 0 .041 0 .02.02 0 1 0-.042 0M.21.104a.02.02 0 1 0 .041 0 .02.02 0 1 0-.042 0m.041 0a.02.02 0 1 0 .042 0 .02.02 0 1 0-.042 0m.084 0a.02.02 0 1 0 .041 0 .02.02 0 1 0-.042 0m.042 0a.02.02 0 1 0 .042 0 .02.02 0 1 0-.042 0m.208 0a.02.02 0 1 0 .042 0 .02.02 0 1 0-.042 0m.042 0a.02.02 0 1 0 .042 0 .02.02 0 1 0-.042 0m.084 0a.02.02 0 1 0 .041 0 .02.02 0 1 0-.042 0m.042 0a.02.02 0 1 0 .042 0 .02.02 0 1 0-.042 0M.167.146a.02.02 0 1 0 .041 0 .02.02 0 1 0-.041 0m.25 0a.02.02 0 1 0 .041 0 .02.02 0 1 0-.041 0m.125 0a.02.02 0 1 0 .041 0 .02.02 0 1 0-.041 0m.25 0a.02.02 0 1 0 .041 0 .02.02 0 1 0-.041 0M.167.188a.02.02 0 1 0 .041 0 .02.02 0 1 0-.041 0m.292 0a.02.02 0 1 0 .041 0 .02.02 0 1 0-.042 0m.042 0a.02.02 0 1 0 .042 0 .02.02 0 1 0-.042 0m.292 0a.02.02 0 1 0 .041 0 .02.02 0 1 0-.041 0M.167.229a.02.02 0 1 0 .041 0 .02.02 0 1 0-.041 0m.292 0A.02.02 0 1 0 .5.23a.02.02 0 1 0-.042 0M.5.23a.02.02 0 1 0 .042 0A.02.02 0 1 0 .5.23m.292 0a.02.02 0 1 0 .041 0 .02.02 0 1 0-.041 0M.167.271a.02.02 0 1 0 .041 0 .02.02 0 1 0-.041 0m.25 0a.02.02 0 1 0 .041 0 .02.02 0 1 0-.041 0M.542.27a.02.02 0 1 0 .041 0 .02.02 0 1 0-.041 0m.25 0a.02.02 0 1 0 .041 0 .02.02 0 1 0-.041 0M.209.312a.02.02 0 1 0 .041 0 .02.02 0 1 0-.042 0m.167 0a.02.02 0 1 0 .042 0 .02.02 0 1 0-.042 0m.042.001a.02.02 0 1 0 .041 0 .02.02 0 1 0-.041 0m.042 0a.02.02 0 1 0 .041 0 .02.02 0 1 0-.042 0m.042 0a.02.02 0 1 0 .042 0 .02.02 0 1 0-.042 0m.042 0a.02.02 0 1 0 .041 0 .02.02 0 1 0-.041 0m.042 0a.02.02 0 1 0 .041 0 .02.02 0 1 0-.042 0m.167 0a.02.02 0 1 0 .042 0 .02.02 0 1 0-.042 0M.208.354a.02.02 0 1 0 .042 0 .02.02 0 1 0-.042 0m.042 0a.02.02 0 1 0 .042 0 .02.02 0 1 0-.042 0m.042 0a.02.02 0 1 0 .041 0 .02.02 0 1 0-.041 0m.042 0a.02.02 0 1 0 .041 0 .02.02 0 1 0-.042 0m.292 0a.02.02 0 1 0 .042 0 .02.02 0 1 0-.042 0m.042 0a.02.02 0 1 0 .041 0 .02.02 0 1 0-.041 0m.042 0a.02.02 0 1 0 .041 0 .02.02 0 1 0-.042 0m.042 0a.02.02 0 1 0 .042 0 .02.02 0 1 0-.042 0M.125.396a.02.02 0 1 0 .042 0 .02.02 0 1 0-.042 0m.042 0a.02.02 0 1 0 .041 0 .02.02 0 1 0-.041 0m.042 0a.02.02 0 1 0 .041 0 .02.02 0 1 0-.042 0m.126 0a.02.02 0 1 0 .041 0 .02.02 0 1 0-.042 0m.292 0a.02.02 0 1 0 .042 0 .02.02 0 1 0-.042 0m.125 0a.02.02 0 1 0 .042 0 .02.02 0 1 0-.042 0m.042 0a.02.02 0 1 0 .041 0 .02.02 0 1 0-.041 0m.042 0a.02.02 0 1 0 .041 0 .02.02 0 1 0-.042 0M.042.437a.02.02 0 1 0 .041 0 .02.02 0 1 0-.041 0m.042.001a.02.02 0 1 0 .041 0 .02.02 0 1 0-.042 0m.167 0a.02.02 0 1 0 .042 0 .02.02 0 1 0-.042 0m.042 0a.02.02 0 1 0 .041 0 .02.02 0 1 0-.041 0m.167 0a.02.02 0 1 0 .041 0 .02.02 0 1 0-.042 0m.042 0a.02.02 0 1 0 .042 0 .02.02 0 1 0-.042 0m.167 0a.02.02 0 1 0 .041 0 .02.02 0 1 0-.041 0m.042 0a.02.02 0 1 0 .041 0 .02.02 0 1 0-.042 0m.167 0a.02.02 0 1 0 .042 0 .02.02 0 1 0-.042 0m.042 0a.02.02 0 1 0 .041 0 .02.02 0 1 0-.041 0M0 .48a.02.02 0 1 0 .042 0A.02.02 0 1 0 0 .48m.042 0a.02.02 0 1 0 .041 0 .02.02 0 1 0-.041 0m.208 0a.02.02 0 1 0 .042 0 .02.02 0 1 0-.042 0m.042 0a.02.02 0 1 0 .041 0 .02.02 0 1 0-.041 0m.125 0a.02.02 0 1 0 .041 0 .02.02 0 1 0-.041 0m.042 0A.02.02 0 1 0 .5.48a.02.02 0 1 0-.042 0M.5.48a.02.02 0 1 0 .042 0A.02.02 0 1 0 .5.48m.042 0a.02.02 0 1 0 .041 0 .02.02 0 1 0-.041 0m.125 0a.02.02 0 1 0 .041 0 .02.02 0 1 0-.041 0m.042 0a.02.02 0 1 0 .041 0 .02.02 0 1 0-.042 0m.209 0a.02.02 0 1 0 .041 0 .02.02 0 1 0-.041 0m.042 0A.02.02 0 1 0 1 .48a.02.02 0 1 0-.042 0M0 .521a.02.02 0 1 0 .042 0A.02.02 0 1 0 0 .52m.042 0a.02.02 0 1 0 .041 0 .02.02 0 1 0-.041 0m.208 0a.02.02 0 1 0 .042 0 .02.02 0 1 0-.042 0m.042 0a.02.02 0 1 0 .041 0 .02.02 0 1 0-.041 0m.125 0a.02.02 0 1 0 .041 0 .02.02 0 1 0-.041 0m.042 0A.02.02 0 1 0 .5.52a.02.02 0 1 0-.042 0M.5.52a.02.02 0 1 0 .042 0A.02.02 0 1 0 .5.52m.042 0a.02.02 0 1 0 .041 0 .02.02 0 1 0-.041 0m.125 0a.02.02 0 1 0 .041 0 .02.02 0 1 0-.041 0m.042 0a.02.02 0 1 0 .041 0 .02.02 0 1 0-.042 0m.209 0a.02.02 0 1 0 .041 0 .02.02 0 1 0-.041 0m.042 0A.02.02 0 1 0 1 .52a.02.02 0 1 0-.042 0M.042.562a.02.02 0 1 0 .041 0 .02.02 0 1 0-.041 0m.042.001a.02.02 0 1 0 .041 0 .02.02 0 1 0-.042 0m.167 0a.02.02 0 1 0 .042 0 .02.02 0 1 0-.042 0m.042 0a.02.02 0 1 0 .041 0 .02.02 0 1 0-.041 0m.167 0a.02.02 0 1 0 .041 0 .02.02 0 1 0-.042 0m.042 0a.02.02 0 1 0 .042 0 .02.02 0 1 0-.042 0m.167 0a.02.02 0 1 0 .041 0 .02.02 0 1 0-.041 0m.042 0a.02.02 0 1 0 .041 0 .02.02 0 1 0-.042 0m.167 0a.02.02 0 1 0 .042 0 .02.02 0 1 0-.042 0m.042 0a.02.02 0 1 0 .041 0 .02.02 0 1 0-.041 0M.125.605a.02.02 0 1 0 .042 0 .02.02 0 1 0-.042 0M.167.604a.02.02 0 1 0 .041 0 .02.02 0 1 0-.041 0m.042 0a.02.02 0 1 0 .041 0 .02.02 0 1 0-.042 0m.126 0a.02.02 0 1 0 .041 0 .02.02 0 1 0-.042 0m.292 0a.02.02 0 1 0 .042 0 .02.02 0 1 0-.042 0m.125 0a.02.02 0 1 0 .042 0 .02.02 0 1 0-.042 0m.042 0a.02.02 0 1 0 .041 0 .02.02 0 1 0-.041 0m.042 0a.02.02 0 1 0 .041 0 .02.02 0 1 0-.042 0M.21.646a.02.02 0 1 0 .041 0 .02.02 0 1 0-.042 0m.041 0a.02.02 0 1 0 .042 0 .02.02 0 1 0-.042 0m.042 0a.02.02 0 1 0 .041 0 .02.02 0 1 0-.041 0m.042 0a.02.02 0 1 0 .041 0 .02.02 0 1 0-.042 0m.292 0a.02.02 0 1 0 .042 0 .02.02 0 1 0-.042 0m.042 0a.02.02 0 1 0 .041 0 .02.02 0 1 0-.041 0m.042 0a.02.02 0 1 0 .041 0 .02.02 0 1 0-.042 0m.042 0a.02.02 0 1 0 .042 0 .02.02 0 1 0-.042 0M.208.687a.02.02 0 1 0 .042 0 .02.02 0 1 0-.042 0m.167 0a.02.02 0 1 0 .042 0 .02.02 0 1 0-.042 0m.042.001a.02.02 0 1 0 .041 0 .02.02 0 1 0-.041 0m.042 0a.02.02 0 1 0 .041 0 .02.02 0 1 0-.042 0m.042 0a.02.02 0 1 0 .042 0 .02.02 0 1 0-.042 0m.042 0a.02.02 0 1 0 .041 0 .02.02 0 1 0-.041 0m.042 0a.02.02 0 1 0 .041 0 .02.02 0 1 0-.042 0m.167 0a.02.02 0 1 0 .042 0 .02.02 0 1 0-.042 0M.167.73a.02.02 0 1 0 .041 0 .02.02 0 1 0-.041 0m.25 0a.02.02 0 1 0 .041 0 .02.02 0 1 0-.041 0m.125 0a.02.02 0 1 0 .041 0 .02.02 0 1 0-.041 0m.25 0a.02.02 0 1 0 .041 0 .02.02 0 1 0-.041 0M.167.771a.02.02 0 1 0 .041 0 .02.02 0 1 0-.041 0m.292 0A.02.02 0 1 0 .5.77a.02.02 0 1 0-.042 0M.5.77a.02.02 0 1 0 .042 0A.02.02 0 1 0 .5.77m.292 0a.02.02 0 1 0 .041 0 .02.02 0 1 0-.041 0M.167.812a.02.02 0 1 0 .041 0 .02.02 0 1 0-.041 0m.292 0a.02.02 0 1 0 .041 0 .02.02 0 1 0-.042 0M.5.813a.02.02 0 1 0 .042 0 .02.02 0 1 0-.042 0m.292 0a.02.02 0 1 0 .041 0 .02.02 0 1 0-.041 0M.167.855a.02.02 0 1 0 .041 0 .02.02 0 1 0-.041 0m.25 0a.02.02 0 1 0 .041 0 .02.02 0 1 0-.041 0M.542.854a.02.02 0 1 0 .041 0 .02.02 0 1 0-.041 0m.25 0a.02.02 0 1 0 .041 0 .02.02 0 1 0-.041 0M.209.896a.02.02 0 1 0 .041 0 .02.02 0 1 0-.042 0m.042 0a.02.02 0 1 0 .042 0 .02.02 0 1 0-.042 0m.084 0a.02.02 0 1 0 .041 0 .02.02 0 1 0-.042 0m.042 0a.02.02 0 1 0 .042 0 .02.02 0 1 0-.042 0m.208 0a.02.02 0 1 0 .042 0 .02.02 0 1 0-.042 0m.042 0a.02.02 0 1 0 .042 0 .02.02 0 1 0-.042 0m.084 0a.02.02 0 1 0 .041 0 .02.02 0 1 0-.042 0m.042 0a.02.02 0 1 0 .042 0 .02.02 0 1 0-.042 0m-.5.041a.02.02 0 1 0 .042 0 .02.02 0 1 0-.042 0m.042.001a.02.02 0 1 0 .041 0 .02.02 0 1 0-.041 0m.375 0a.02.02 0 1 0 .041 0 .02.02 0 1 0-.041 0m.042 0a.02.02 0 1 0 .041 0 .02.02 0 1 0-.042 0" fill="var(--ds-gray-1000)"/></svg>